<svg width="12" height="4" viewBox="0 0 12 4" fill="none" xmlns="http://www.w3.org/2000/svg">
<path d="M1.99999 0.666656C1.26666 0.666656 0.666656 1.26666 0.666656 1.99999C0.666656 2.73332 1.26666 3.33332 1.99999 3.33332C2.73332 3.33332 3.33332 2.73332 3.33332 1.99999C3.33332 1.26666 2.73332 0.666656 1.99999 0.666656ZM9.99999 0.666656C9.26666 0.666656 8.66666 1.26666 8.66666 1.99999C8.66666 2.73332 9.26666 3.33332 9.99999 3.33332C10.7333 3.33332 11.3333 2.73332 11.3333 1.99999C11.3333 1.26666 10.7333 0.666656 9.99999 0.666656ZM5.99999 0.666656C5.26666 0.666656 4.66666 1.26666 4.66666 1.99999C4.66666 2.73332 5.26666 3.33332 5.99999 3.33332C6.73332 3.33332 7.33332 2.73332 7.33332 1.99999C7.33332 1.26666 6.73332 0.666656 5.99999 0.666656Z" fill="black" fill-opacity="0.54"/>
</svg>
